<?xml version="1.0" encoding="utf-8"?>
<!-- Generator: Adobe Illustrator 24.0.3, SVG Export Plug-In . SVG Version: 6.00 Build 0)  -->
<svg version="1.1" id="Layer_1" xmlns="http://www.w3.org/2000/svg" xmlns:xlink="http://www.w3.org/1999/xlink" x="0px" y="0px"
	 viewBox="0 0 528.9 53.2" style="enable-background:new 0 0 528.9 53.2;" xml:space="preserve">
<path d="M517,32v5.5c0,0.9-0.2,1.8-0.6,2.6c-0.3,0.6-0.8,1.2-1.5,1.8c-0.7,0.5-1.6,0.8-2.8,0.8c-1.3,0-2.4-0.3-3.1-0.8
	s-1.3-1.1-1.6-1.8c-0.4-0.8-0.6-1.6-0.7-2.6V15c0.2-1.6,0.8-2.8,1.8-3.6s2.2-1.2,3.5-1.2s2.2,0.2,2.9,0.7s1.2,1.1,1.5,1.7
	c0.4,0.7,0.6,1.5,0.6,2.4v3.4h11.9V8.8L519.1,0h-15l-9.4,8.8v35.6l9.4,8.8h15l9.8-8.8V32H517z M452.4,53.2h27.8V42.3h-16V31.5h16
	V20.6h-16V11h16V0h-27.8V53.2z M437.8,41.6h-17.5l17.6-25.1V0H408v11.3h19.6L408,38.4v14.8h29.9V41.6H437.8z M370.6,10.9h5.7
	c0.4,0,1,0.1,1.6,0.3s1.2,0.5,1.8,0.9c0.6,0.4,1,1,1.4,1.7s0.6,1.6,0.6,2.6c0,1.2-0.2,2.1-0.6,2.9s-0.9,1.4-1.4,1.8
	c-0.6,0.4-1.2,0.7-1.8,0.9c-0.6,0.2-1.2,0.2-1.6,0.2h-5.7V10.9z M370.6,53.2V31.3h8.4l3,2.9v19h11.8V32l-5.7-5.7l5.7-5.2V10.7
	L383.4,0h-24.6v53.2H370.6z M321,32.9c0,0,0.1-0.4,0.3-1.2c0.2-0.9,0.5-2,0.8-3.2c0.3-1.3,0.7-2.7,1.1-4.2s0.8-2.9,1.1-4.2
	c0.3-1.3,0.7-2.8,1.1-4.5l4.2,17.5H321V32.9z M316.2,0l-11.1,53.2h11.8l2.3-10h12.5l2,10h11.5L334.1,0H316.2z M252.8,53.2V20.8
	l8.2,32.4h10.1l8.2-32.4v32.4h11.5V0h-17.4L266,28.1L258.7,0h-17.4v53.2H252.8z M203.9,0h-11.7l-7,17.9l-7-17.9h-11.7l12.8,29.5
	v23.7H191V29.5L203.9,0z M134.3,32h3.5c0.4,0,1,0.1,1.7,0.3s1.4,0.5,2.1,1c0.7,0.5,1.3,1.1,1.8,1.9c0.5,0.8,0.8,1.8,0.8,3.1
	c0,1.2-0.2,2.2-0.7,3.1c-0.5,0.9-1.1,1.5-1.8,2s-1.4,0.9-2.1,1.1c-0.7,0.2-1.3,0.3-1.7,0.3h-3.5V32H134.3z M134.3,8.8h3.5
	c0.4,0,1,0.1,1.7,0.3s1.4,0.5,2.1,0.9c0.7,0.5,1.3,1.1,1.8,1.9c0.5,0.8,0.8,1.8,0.8,3.1s-0.2,2.3-0.7,3.1c-0.5,0.8-1.1,1.5-1.8,2
	s-1.4,0.9-2.1,1.1c-0.7,0.2-1.3,0.3-1.7,0.3h-3.5V8.8H134.3z M155.4,44.4V31.6l-5.3-5.3l5.5-5.1V8.8L145.9,0h-23.5v53.2h23.3
	L155.4,44.4z M85,10.9h5.7c0.4,0,1,0.1,1.6,0.3s1.2,0.5,1.8,0.9c0.6,0.4,1,1,1.5,1.7c0.4,0.7,0.6,1.6,0.6,2.6c0,1.2-0.2,2.1-0.6,2.9
	s-0.9,1.4-1.5,1.8s-1.2,0.7-1.8,0.9c-0.6,0.2-1.2,0.2-1.6,0.2H85V10.9z M85,53.2V31.3h8.4l3,2.9v19h11.8V32l-5.7-5.7l5.7-5.2V10.7
	L97.9,0H73.2v53.2H85z M47,53.2h11.8V0H47V53.2z M20.4,0v16.5l-3.1,3.3h-6.1V0H0v53.2h11.8V30.4h5.5l3,3.4v19.4h11.9v-23l-5.1-5.7
	l5.1-5.3V0H20.4z"/>
</svg>
